<svg xmlns="http://www.w3.org/2000/svg" version="1.1" xmlns:xlink="http://www.w3.org/1999/xlink" xmlns:svgjs="http://svgjs.dev/svgjs" width="1440" height="560" preserveAspectRatio="none" viewBox="0 0 1440 560"><g mask="url(&quot;#SvgjsMask1179&quot;)" fill="none"><rect width="1440" height="560" x="0" y="0" fill="rgba(26, 77, 46, 1)"></rect><path d="M1440 0L1055.37 0L1440 268.82z" fill="rgba(255, 255, 255, .1)"></path><path d="M1055.37 0L1440 268.82L1440 286.8L970.7299999999999 0z" fill="rgba(255, 255, 255, .075)"></path><path d="M970.73 0L1440 286.8L1440 361.71000000000004L759.38 0z" fill="rgba(255, 255, 255, .05)"></path><path d="M759.38 0L1440 361.71000000000004L1440 476.42L537.4300000000001 0z" fill="rgba(255, 255, 255, .025)"></path><path d="M0 560L43.62 560L0 485.76z" fill="rgba(0, 0, 0, .1)"></path><path d="M0 485.76L43.62 560L642.91 560L0 261.58z" fill="rgba(0, 0, 0, .075)"></path><path d="M0 261.58L642.91 560L774.67 560L0 215.57999999999998z" fill="rgba(0, 0, 0, .05)"></path><path d="M0 215.57999999999998L774.67 560L1183.33 560L0 66.99999999999997z" fill="rgba(0, 0, 0, .025)"></path></g><defs><mask id="SvgjsMask1179"><rect width="1440" height="560" fill="#ffffff"></rect></mask></defs></svg>